<svg id="Layer_1" data-name="Layer 1" xmlns="http://www.w3.org/2000/svg" xmlns:xlink="http://www.w3.org/1999/xlink" viewBox="0 0 749 196.1"><defs><style>.cls-1{fill:url(#linear-gradient);}.cls-2{fill:url(#linear-gradient-2);}.cls-3{fill:url(#linear-gradient-3);}.cls-4{fill:url(#linear-gradient-4);}.cls-5{fill:url(#linear-gradient-5);}.cls-6{fill:url(#linear-gradient-6);}.cls-7{fill:url(#linear-gradient-7);}.cls-8{fill:url(#linear-gradient-8);}.cls-9{fill:url(#linear-gradient-9);}</style><linearGradient id="linear-gradient" x1="298.11" y1="441.87" x2="381.6" y2="441.87" gradientUnits="userSpaceOnUse"><stop offset="0" stop-color="#000c41"/><stop offset="0.19" stop-color="#00154a"/><stop offset="0.51" stop-color="#002c64"/><stop offset="0.91" stop-color="#00528d"/><stop offset="0.99" stop-color="#005b97"/></linearGradient><linearGradient id="linear-gradient-2" x1="381.27" y1="449.75" x2="442.73" y2="449.75" xlink:href="#linear-gradient"/><linearGradient id="linear-gradient-3" x1="419.96" y1="475.36" x2="525.9" y2="475.36" xlink:href="#linear-gradient"/><linearGradient id="linear-gradient-4" x1="513.5" y1="472.65" x2="611.7" y2="472.65" xlink:href="#linear-gradient"/><linearGradient id="linear-gradient-5" x1="606.91" y1="466.89" x2="704.91" y2="466.89" xlink:href="#linear-gradient"/><linearGradient id="linear-gradient-6" x1="697.07" y1="456.19" x2="791.21" y2="456.19" xlink:href="#linear-gradient"/><linearGradient id="linear-gradient-7" x1="783.64" y1="464.75" x2="874.18" y2="464.75" xlink:href="#linear-gradient"/><linearGradient id="linear-gradient-8" x1="873.91" y1="455.31" x2="966.88" y2="455.31" xlink:href="#linear-gradient"/><linearGradient id="linear-gradient-9" x1="963.85" y1="468.26" x2="1047.07" y2="468.26" xlink:href="#linear-gradient"/></defs><path class="cls-1" d="M349.7,365.9c9.3.7,20.7.8,27,9.2s4.9,19.8,4.5,29.4c-.7,7.5-.4,11.5-.5,19.1,0,10.7-2.1,23.3-10,30.7s-22.1,7.4-32.9,4.8c-3.6-.8-5.4-1.2-9-1.7a.8.8,0,0,0-1,.9c3.7,20.5,9.2,40.3,18.6,59,.2.5,0,.7-.6.5a167.9,167.9,0,0,1-22.4-12.2,8.6,8.6,0,0,1-1.4-1.3c-21.9-35.3-36.2-86.9-9.1-123l1.5-1.5A50.4,50.4,0,0,1,349.7,365.9ZM336,436c4,.6,7.1-.1,9.5-2.1s3.5-5.7,3.6-10.5c0-7.1-.2-10.7.3-17.7.4-4.9-.2-8.5-2.1-10.8s-4.8-3.7-8.8-3.9a48.2,48.2,0,0,0-9.3,0,1.6,1.6,0,0,0-1.5,1.2c-3.3,13.5-2.2,27.7-2.1,41.4a1.4,1.4,0,0,0,1.2,1.3C330.4,435.2,332.3,435.4,336,436Z" transform="translate(-298.1 -365.8)"/><path class="cls-2" d="M392.6,372.4h23.9c.8,0,1.1.6.7,1.2-8.9,17-13.5,32.9-16.7,51.8h.1a1.1,1.1,0,0,0,1.2-.9,199.7,199.7,0,0,1,15.8-41.4,24.5,24.5,0,0,1,6.9-8.2,12.3,12.3,0,0,1,7.5-2.5h9.8c.7,0,1.1.4.9,1a103.4,103.4,0,0,0-6,27.4,1.5,1.5,0,0,1-1.2,1.3l-8.1.9c-4.7.5-8,2-9.8,4.5s-2.7,6.6-2.7,12.3c.2,36.4,3.5,70.9,13.5,105.9a.9.9,0,0,1-.9,1.2,206.8,206.8,0,0,1-29.5-1.1,2.3,2.3,0,0,1-1.7-1.3c-14.2-46.6-22.7-104.4-5.4-151.1A2.2,2.2,0,0,1,392.6,372.4Z" transform="translate(-298.1 -365.8)"/><path class="cls-3" d="M445.4,546.3c-8-6.7-11.6-16.4-15.1-25.9-1.4-5-2.1-7.5-3.3-12.6-2.3-9.4-2.3-17.2-.5-23.1s6-10.9,12.1-14.8c8.5-5.4,18.4-8.4,27.9-11.4,4-1.1,6.9-3,8.8-5.7s2.8-6.4,2.6-11.4-1.5-9.1-3.9-11.8-5.7-4-9.9-4-7.7,1.5-10.2,4.3-3.3,6.2-3.4,10.8a1.2,1.2,0,0,1-1.2,1.2h-28a1.3,1.3,0,0,1-1.3-1.3c-.2-11.8,2.7-25.1,11.6-33.3s20.3-11.1,31.5-11.1,21.7,2.9,29.5,10.5,12.1,19.5,12.3,31c1.5,29.2,4.6,57.4,11.1,85.9,1.8,7.7,3.2,12.9,4.4,15.9s2.9,6.5,5.4,11.2a.9.9,0,0,1-.9,1.3H499.8a1.7,1.7,0,0,1-1.4-.8,13.4,13.4,0,0,1-1.2-3c-.7-2.5-.7-5.8-.1-10a156.5,156.5,0,0,1,4.1-17.9H501a1,1,0,0,0-1,.7c-2.5,9.8-5.3,16.8-8.2,21.6s-6.4,7.9-10.1,9.5-8.3,2.5-14,2.5A33.9,33.9,0,0,1,445.4,546.3Zm12.7-31.6c1.1,4.5,3.1,7.8,5.8,9.8a15.1,15.1,0,0,0,9.5,3.1c3.9,0,6.5-1.5,7.9-4.3s1.2-7.2-.1-12.9c-2.1-10.8-3.8-21.4-5.2-32.3a1.5,1.5,0,0,0-1.8-1.2,93.1,93.1,0,0,0-12.7,5c-6.1,3-8.3,11-5.6,23.5C456.7,509.1,457.2,511,458.1,514.7Z" transform="translate(-298.1 -365.8)"/><path class="cls-4" d="M565,548c-.7-4.1,2.5-7.5,7.3-7.5h0c3.9-.1,6.7-1,8.3-3s2.2-4.8,1.6-8.2c-1.8-10.2-4-20.4-5.5-30.7a.9.9,0,0,0-.8-.7h0a.6.6,0,0,0-.6.6c-.8,10.8-2.4,18.2-5.4,22.3s-8.2,6.4-15.4,6.4-16.4-3.3-23-10.1-11.7-18-13.1-28.6c-2.6-21.4-3.9-42.8-4.7-64.4-.7-10.5.3-21.9,6.7-30.5,5.1-6.9,12.9-10.1,22.6-10.2s15.2,2.5,20.4,7.7c8,8.2,11.4,20.9,14.7,31.5a1.4,1.4,0,0,0,1.3,1h0c-3.9-12-7.6-24-9.9-36.5a1.3,1.3,0,0,1,1.3-1.4h26.6a1.2,1.2,0,0,1,1.2,1.1c-.5,47.3,4.9,95.7,12.6,142.4,1.6,10.5-.9,18.4-6.8,24.2-7.6,7.4-19.1,8.1-28.5,8.5h-.5c-4.5,0-8.6-2.9-9.2-6.7S565.5,550.9,565,548Zm-17.4-63.3c.6,4.9,2.2,8.7,4.8,11.3a12.6,12.6,0,0,0,9.3,3.8c8.2,0,11.1-6.9,9.7-21-1.5-17.3-2.7-34.6-3.6-52-.2-5-1.6-8.8-4-11.4a11.5,11.5,0,0,0-9-4,10.2,10.2,0,0,0-8.7,4.1c-2,2.7-2.9,6.5-2.7,11.5C544.3,446.3,545.6,465.5,547.6,484.7Z" transform="translate(-298.1 -365.8)"/><path class="cls-5" d="M624.6,538c-6.9-7.5-9-17.8-11.4-27.4-.8-5.2-1.2-7.8-1.9-13.1-1.3-9.8-.7-17.8,1.6-23.8s6.5-11.1,12.8-15.1c8.6-5.4,18.5-8.3,28.1-11.4a15.5,15.5,0,0,0,8.8-5.6c1.9-2.7,2.7-6.4,2.3-11.3s-2-8.8-4.6-11.4a14,14,0,0,0-10.2-3.9c-4.4.1-7.6,1.4-9.8,4.2s-2.9,5.9-2.8,10.4a1.2,1.2,0,0,1-1.2,1.2H608.4a1.3,1.3,0,0,1-1.3-1.3c-.7-11.3.7-24.1,9.5-32.1s19.5-10.3,30.2-10.4,22,2.8,30.3,9.9,13.6,18.6,14.5,29.8c2.6,29.1,3.8,58.2,7.3,87.1,1.1,8,1.9,13.6,2.6,16.9s1.9,7,3.4,11.9a1.2,1.2,0,0,1-1.2,1.4H678.4a1.3,1.3,0,0,1-1.3-.8,16.1,16.1,0,0,1-.6-3.3,35.7,35.7,0,0,1,1.8-10.6c1.3-4.5,3.2-10.9,6.1-18.9h-.2a1,1,0,0,0-1,.7c-3.5,10.2-7.2,17.8-11,22.9s-8.1,8.4-12.2,10.2a39.2,39.2,0,0,1-14.8,2.5C636.8,546.7,630.1,544,624.6,538Zm17.1-33.4c.7,4.7,2.3,8.1,4.8,10.3a13.3,13.3,0,0,0,9.2,3.1q6,0,8.4-4.5c1.6-3,2-7.4,1.3-13.4-1.1-11-1.9-22-2.6-33.1a1.3,1.3,0,0,0-1.7-1.2,103,103,0,0,0-13,5.1c-6.3,3.1-9.1,11.2-7.6,24.1C641,498.9,641.2,500.8,641.7,504.6Z" transform="translate(-298.1 -365.8)"/><path class="cls-6" d="M713.7,536.5c-5.8-8.4-7.7-18.5-9.6-28.3-3-27.5-4.2-55.1-6.6-82.6-.5-9.5-1.4-20,3.6-28.6,3.9-6.9,10.3-10.2,19-10.2,7.2,0,13.1,2.1,18,6.5s9.5,11.6,14.4,22.3a1.5,1.5,0,0,0,1.4.9h.1c-2.7-9.1-5.3-18.2-7.7-27.4a.1.1,0,0,0-.1-.1c-1.2-9.5-1.7-14-2.6-22.2-.1-.6.4-1,1.1-1h0c14.7.4,31.6,9.7,33.8,25.7,8.2,48.8,14.7,101.6,12.1,151.2a1.3,1.3,0,0,1-1.3,1.2H758.8a1.1,1.1,0,0,1-1.1-1.4,124.7,124.7,0,0,0,4.5-26.1h-.1a1.1,1.1,0,0,0-1.1.9c-2.2,11-6.1,18.3-10.5,22.7s-10.2,6.6-17.1,6.6C724.8,546.6,718.5,543.4,713.7,536.5Zm19.4-31.8c.5,4.9,2,8.5,4.4,11a12.2,12.2,0,0,0,9.2,3.6c8.1-.1,11.5-4.9,10.6-14.8-2.1-25.2-2.9-50.4-5.4-75.5-1.1-10-6-14.7-14.2-14.6-3.8,0-6.6,1.2-8.4,3.7s-2.3,6.1-1.8,11.1C729.8,454.3,730.8,479.5,733.1,504.7Z" transform="translate(-298.1 -365.8)"/><path class="cls-7" d="M802.4,534.2c-7.9-8-12-19.5-12.9-30.7-1.7-25.6-2.4-51.1-5.3-76.6-1.5-10.8-.3-22.5,7.1-31s18.8-11.1,29.5-11.1,23.3,3.2,32.4,10.7A48.6,48.6,0,0,1,870.5,426a332.1,332.1,0,0,1,3.7,38.5,1.3,1.3,0,0,1-1.3,1.4l-51.9.2a1.2,1.2,0,0,0-1.2,1.3c.3,11.1.8,22.2,1.4,33.3s4.7,15.1,12.2,15.1,10.7-5.1,10.2-15.2-.7-13.1-.9-21.8a1.2,1.2,0,0,1,1.3-1.3l27-.3a1.5,1.5,0,0,1,1.4,1.3c.2,10.1.3,15.2.8,25.2s-2,22.7-10.5,30.5-19.9,10.5-30.8,10.5S810.1,542,802.4,534.2ZM842,426.5c-.7-4.7-2.5-8.4-5.3-10.9a14,14,0,0,0-10.1-3.8q-6,0-8.7,3.9c-1.8,2.6-2.3,6.2-1.6,11,1,7.8,1.5,11.9,2.2,19.9a1.4,1.4,0,0,0,1.4,1.3l23.2-.2a1.2,1.2,0,0,0,1.2-1.3C843.6,438.3,843.1,434.3,842,426.5Z" transform="translate(-298.1 -365.8)"/><path class="cls-8" d="M893.7,523.7c-8.1-8.5-12.2-19.7-12.5-31.4-.6-25.9-1.5-50.8-6-76.3-2.4-10.1-1.8-21.5,4.8-29.7s18.3-10,27.9-10.5c11.3-.6,23.7,3.2,33.4,10.1a50.6,50.6,0,0,1,19.9,29.4,226.1,226.1,0,0,1,5.7,37.6,1.3,1.3,0,0,1-1.3,1.3l-52,.2a1.2,1.2,0,0,0-1.2,1.3c.4,11.2.5,22.5.7,33.7s4.1,15.3,11.5,15.3,11.1-5.2,11-15.5c-.1-8.8,0-13.1-.1-22.1a1.3,1.3,0,0,1,1.3-1.3l27.1-.2a1.3,1.3,0,0,1,1.4,1.3c0,10.4-.1,15.4-.1,25.5s-2.8,23.2-10.8,31.2-19.9,11.2-31,11.3S901.3,531.8,893.7,523.7Zm39-108.1a19.6,19.6,0,0,0-6.1-10.6,15.6,15.6,0,0,0-10.3-3.6c-4,0-6.8,1.2-8.4,3.7s-1.8,6-.8,10.7a196.1,196.1,0,0,1,3.3,19.4,1.5,1.5,0,0,0,1.5,1.2l23.2-.2a1.1,1.1,0,0,0,1.1-1.3C935.1,427,934.4,423.2,932.7,415.6Z" transform="translate(-298.1 -365.8)"/><path class="cls-9" d="M976.8,530.9c-7-12.4-10.2-26.4-10.3-40.6,0-2.6.3-7.1,1-13.5a1.2,1.2,0,0,1,1.3-1.1,237.5,237.5,0,0,1,25.5,1.6,1.4,1.4,0,0,1,1.3,1.5c-.3,3.7-.5,6.5-.5,8.3-.1,8.7,1.2,15.7,3.7,20.9s6,8,10.4,8.4a9.5,9.5,0,0,0,9.2-4.5c2.2-3.3,3.3-7.7,3.3-13.3a28.4,28.4,0,0,0-3.3-13.8,21.9,21.9,0,0,0-9-9.1c-5.8-2.8-8.7-4.3-14.7-7-7.6-3.3-13.9-9-19.2-16.7A65.3,65.3,0,0,1,965,425.7c-1.2-9.3-3-21.1,4-29.2,5.3-6.1,14-7.3,25.6-2.6s21.2,12.4,29.7,21,15.1,17.1,18.5,27.8a48,48,0,0,1,1.3,5.2c.1.5-.2.8-.7.7l-20.1-4.4a1.8,1.8,0,0,1-1.4-1.4c-.1-.7-.2-1.5-.4-2.5a32.3,32.3,0,0,0-6.5-13.4c-3.1-3.8-6.4-6.2-10.1-7.3s-6.3-.8-7.9,1-2,4.7-1.2,8.7a20.8,20.8,0,0,0,4.9,9.4,26,26,0,0,0,9.2,6.9l12.7,5.7a41.1,41.1,0,0,1,18.5,15.9c4.4,7.1,6,14.7,6,24s-1,17-4.1,25.3a49.7,49.7,0,0,1-15.8,21,38.1,38.1,0,0,1-23.9,8C992.6,545.2,982.3,540.5,976.8,530.9Z" transform="translate(-298.1 -365.8)"/></svg>